# xmcd
#
# Track frame offsets:
# 150
# 12646
# 31437
# 48896
# 59768
# 77050
# 90271
# 106172
# 125911
# 141439
# 152761
# 165510
# 182311
# 195278
#
# Disc length: 2808 seconds
#
#
# Revision: 3
# Processed by: cddbd v1.5.2PL0 Copyright (c) Steve Scherf et al.
# Submitted via: FreeRIP 2.95 
#
DISCID=b10af60e
DTITLE=Lourenço e Lourival - Franguinho na Panela
DYEAR=1975
DGENRE=Sertanejo
TTITLE0=Buscando A Mineira
TTITLE1=As Três Namoradas
TTITLE2=Franguinho na Panela
TTITLE3=Cidade Abandonada
TTITLE4=Caminheiro
TTITLE5=Tô Feliz
TTITLE6=A Ultima Viagem
TTITLE7=Estrada Velha
TTITLE8=Meu Sítio Meu Paraiso
TTITLE9=Desconhecida
TTITLE10=Forró do Puxa-Têta
TTITLE11=Falso Juramento
TTITLE12=Vingança do Caçador
TTITLE13=Burro Inocente
EXTD=
EXTT0=
EXTT1=
EXTT2=
EXTT3=
EXTT4=
EXTT5=
EXTT6=
EXTT7=
EXTT8=
EXTT9=
EXTT10=
EXTT11=
EXTT12=
EXTT13=
PLAYORDER=
